/* XPM */
static char * wmcpumon_xpm[] = {
"87 64 58 1",
" 	c None",
".	c #188A86",
"+	c #C73000",
"@	c #202020",
"#	c #20B6AE",
"$	c #BE3C00",
"%	c #B64500",
"&	c #9E5900",
"*	c #AE5100",
"=	c #966500",
"-	c #000000",
";	c #867900",
">	c #C7C7C7",
",	c #8E6D00",
"'	c #698E00",
")	c #718200",
"!	c #619600",
"~	c #49AA00",
"{	c #38BE00",
"]	c #FFFFFF",
"^	c #30CB00",
"/	c #20D300",
"(	c #59A200",
"_	c #41B600",
":	c #2AC900",
"<	c #37BC00",
"[	c #44B000",
"}	c #52A200",
"|	c #609400",
"1	c #6D8700",
"2	c #7B7A00",
"3	c #886D00",
"4	c #956000",
"5	c #A35300",
"6	c #B04700",
"7	c #BE3900",
"8	c #C33400",
"9	c #45AF00",
"0	c #5F9500",
"a	c #6D8800",
"b	c #7B7B00",
"c	c #886E00",
"d	c #966100",
"e	c #B04600",
"f	c #BD3900",
"g	c #38BC00",
"h	c #44AF00",
"i	c #609500",
"j	c #7A7B00",
"k	c #966000",
"l	c #A25300",
"m	c #A35400",
"n	c #7A7A00",
"o	c #2ACA00",
"p	c #38BD00",
"q	c #53A200",
"r	c #B14600",
"s	c #020202",
"                                                                .++++++++++++@@@@@@@@@@",
"                                                                #$$$$$$$$$$$$@@@@@@@@@@",
"                                                                #$$$%%%%%%&&&@@@@@@@@@@",
"                                                                #$$$***&&&===@@@@@@@@@@",
"    --------------------------------------------------------    #%%%&&&===;;;@@@@@@@@@@",
"    -@@@@@@@@@@@@@@@@@@@@@@@@@@@@@@@@@@@@@@@@@@@@@@@@@@@@@@>    #%%%===,,,'''@@@@@@@@@@",
"    -@@@@@@@@@@@@@@@@@@@@@@@@@@@@@@@@@@@@@@@@@@@@@@@@@@@@@@>    #***,,,)))!!!@@@@@@@@@@",
"    -@@@@@@@@@@@@@@@@@@@@@@@@@@@@@@@@@@@@@@@@@@@@@@@@@@@@@@>    #&&&,,,'''~~~@@@@@@@@@@",
"    -@@@@@@@@@@@@@@@@@@@@@@@@@@@@@@@@@@@@@@@@@@@@@@@@@@@@@@>    #&&&;;;!!!{{{@@@]]]@@@@",
"    -@@@@@@@@@@@@@@@@@@@@@@@@@@@@@@@@@@@@@@@@@@@@@@@@@@@@@@>    #&&&)))~~~^^^@@]@@@]@@@",
"    -@@@@@@@@@@@@@@@@@@@@@@@@@@@@@@@@@@@@@@@@@@@@@@@@@@@@@@>    #==='''~~~///@]@@]@@]@@",
"    -@@@@@@@@@@@@@@@@@@@@@@@@@@@@@@@@@@@@@@@@@@@@@@@@@@@@@@>    #===!!!{{{@@@@]@]@]@]@@",
"    -@@@@@@@@@@@@@@@@@@@@@@@@@@@@@@@@@@@@@@@@@@@@@@@@@@@@@@>    #,,,(((^^^@@@@]@@@@@]@@",
"    -@@@@@@@@@@@@@@@@@@@@@@@@@@@@@@@@@@@@@@@@@@@@@@@@@@@@@@>    #,,,~~~///@@@@@]@@@]@@@",
"    -@@@@@@@@@@@@@@@@@@@@@@@@@@@@@@@@@@@@@@@@@@@@@@@@@@@@@@>    #,,,~~~@@@@@@@@@]]]@@@@",
"    -@@@@@@@@@@@@@@@@@@@@@@@@@@@@@@@@@@@@@@@@@@@@@@@@@@@@@@>    #;;;{{{@@@@@@@]@@@@@@@@",
"    -@@@@@@@@@@@@@@@@@@@@@@@@@@@@@@@@@@@@@@@@@@@@@@@@@@@@@@>    #;;;^^^@@@@@@@]@@@@@@@@",
"    -@@@@@@@@@@@@@@@@@@@@@@@@@@@@@@@@@@@@@@@@@@@@@@@@@@@@@@>    #)))^^^@@@@@@@@]]]]]]@@",
"    -@@@@@@@@@@@@@@@@@@@@@@@@@@@@@@@@@@@@@@@@@@@@@@@@@@@@@@>    #)))///@@@@@@@@@@@@@@@@",
"    -@@@@@@@@@@@@@@@@@@@@@@@@@@@@@@@@@@@@@@@@@@@@@@@@@@@@@@>    #'''///@@@@@@@@]]]@@@@@",
"    -@@@@@@@@@@@@@@@@@@@@@@@@@@@@@@@@@@@@@@@@@@@@@@@@@@@@@@>    #'''@@@@@@@@@@]@@@]@@@@",
"    -@@@@@@@@@@@@@@@@@@@@@@@@@@@@@@@@@@@@@@@@@@@@@@@@@@@@@@>    #!!!@@@@@@@@@@]@@@]@@@@",
"    -@@@@@@@@@@@@@@@@@@@@@@@@@@@@@@@@@@@@@@@@@@@@@@@@@@@@@@>    #!!!@@@@@@@@@@@]]]@@@@@",
"    -@@@@@@@@@@@@@@@@@@@@@@@@@@@@@@@@@@@@@@@@@@@@@@@@@@@@@@>    #!!!@@@@@@@@@@@@@@@@@@@",
"    -@@@@@@@@@@@@@@@@@@@@@@@@@@@@@@@@@@@@@@@@@@@@@@@@@@@@@@>    #(((@@@@@@@@@@]]]]]]]@@",
"    -@@@@@@@@@@@@@@@@@@@@@@@@@@@@@@@@@@@@@@@@@@@@@@@@@@@@@@>    #(((@@@@@@@@@@@@@@]@@@@",
"    -@@@@@@@@@@@@@@@@@@@@@@@@@@@@@@@@@@@@@@@@@@@@@@@@@@@@@@>    #~~~@@@@@@@@@@]]]]@@@@@",
"    -@@@@@@@@@@@@@@@@@@@@@@@@@@@@@@@@@@@@@@@@@@@@@@@@@@@@@@>    #~~~@@@@@@@@@@@@@@@@@@@",
"    -@@@@@@@@@@@@@@@@@@@@@@@@@@@@@@@@@@@@@@@@@@@@@@@@@@@@@@>    #~~~@@@@@@@@@@]]]]]@@@@",
"    -@@@@@@@@@@@@@@@@@@@@@@@@@@@@@@@@@@@@@@@@@@@@@@@@@@@@@@>    #___@@@@@@@@@@@@@]@@@@@",
"    -@@@@@@@@@@@@@@@@@@@@@@@@@@@@@@@@@@@@@@@@@@@@@@@@@@@@@@>    #{{{@@@@@@@@@@]]]]]@@@@",
"    -@@@@@@@@@@@@@@@@@@@@@@@@@@@@@@@@@@@@@@@@@@@@@@@@@@@@@@>    #{{{@@@@@@@@@@@@@@@@@@@",
"    -@@@@@@@@@@@@@@@@@@@@@@@@@@@@@@@@@@@@@@@@@@@@@@@@@@@@@@>    #^^^@@@@@@@@@@]@]]]@@@@",
"    -@@@@@@@@@@@@@@@@@@@@@@@@@@@@@@@@@@@@@@@@@@@@@@@@@@@@@@>    #^^^@@@@@@@@@@]@]@]@@@@",
"    -@@@@@@@@@@@@@@@@@@@@@@@@@@@@@@@@@@@@@@@@@@@@@@@@@@@@@@>    #^^^@@@@@@@@@@]]]@]@@@@",
"    -@@@@@@@@@@@@@@@@@@@@@@@@@@@@@@@@@@@@@@@@@@@@@@@@@@@@@@>    #///@@@@@@@@@@@@@@@@@@@",
"    -@@@@@@@@@@@@@@@@@@@@@@@@@@@@@@@@@@@@@@@@@@@@@@@@@@@@@@>    #///@@@@@@@@@@@@@@@@@@@",
"    -@@@@@@@@@@@@@@@@@@@@@@@@@@@@@@@@@@@@@@@@@@@@@@@@@@@@@@>    #///@@@@@@@@@@@@@@@@@@@",
"    -@@@@@@@@@@@@@@@@@@@@@@@@@@@@@@@@@@@@@@@@@@@@@@@@@@@@@@>    #///@@@@@@@@@@@@@@@@@@@",
"    -@@@@@@@@@@@@@@@@@@@@@@@@@@@@@@@@@@@@@@@@@@@@@@@@@@@@@@>    @@@@@@@@@@@@@@@@@@@@@@@",
"    -@@@@@@@@@@@@@@@@@@@@@@@@@@@@@@@@@@@@@@@@@@@@@@@@@@@@@@>    /::<<[[}||1122344556678",
"    -@@@@@@@@@@@@@@@@@@@@@@@@@@@@@@@@@@@@@@@@@@@@@@@@@@@@@@>    /::<<99}00aabbcdd55eef8",
"    -@@@@@@@@@@@@@@@@@@@@@@@@@@@@@@@@@@@@@@@@@@@@@@@@@@@@@@>    /::gghh}ii11jj3kkll6678",
"    -@@@@@@@@@@@@@@@@@@@@@@@@@@@@@@@@@@@@@@@@@@@@@@@@@@@@@@>    /::<<99}00aabb344mmee78",
"    -@@@@@@@@@@@@@@@@@@@@@@@@@@@@@@@@@@@@@@@@@@@@@@@@@@@@@@>    /::<<99}ii11nncdd55eef8",
"    ->>>>>>>>>>>>>>>>>>>>>>>>>>>>>>>>>>>>>>>>>>>>>>>>>>>>>>>    /oopp99qiiaajj3kk55ee78",
"                                                                /::<<99}iiaabbcddmmrr78",
"                                                                /oo<<99}0011bbckk55ee78",
"    ---------------------------  ---------------------------    @@@@@@@@@@@@@@@@@@@@@@@",
"    -@@@@@@@@@@@@@@@@@@@@@@@@@>  -@@@@@@@@@@@@@@@@@@@@@@@@@>    ####@@#####@####@@#####",
"    -@@@@@@@@@@@@@@@@@@@@@@@@@>  -@@@@@@@@@@@@@@@@@@@@@@@@@>    #@@@#@#@@@#@#@@@#@#@@@@",
"    -@@@@@@@@@@@@@@@@@@@@@@@@@>  -@@@@@@@@@@@@@@@@@@@@@@@@@>    #@@@#@#@@@#@#@@@#@#@@@@",
"    -@@@@@@@@@@@@@@@@@@@@@@@@@>  -@@@@@@@@@@@@@@@@@@@@@@@@@>    #@@@#@#@@@#@#@@@#@####@",
"    -@@@@@@@@@@@@@@@@@@@@@@@@@>  -@@@@@@@@@@@@@@@@@@@@@@@@@>    #@@@#@#@@@#@#@@@#@#@@@@",
"    -@@@@@@@@@@@@@@@@@@@@@@@@@>  -@@@@@@@@@@@@@@@@@@@@@@@@@>    #@@@#@#@@@#@#@@@#@#@@@@",
"    -@@@@@@@@@@@@@@@@@@@@@@@@@>  -@@@@@@@@@@@@@@@@@@@@@@@@@>    #@@@#@#####@#@@@#@#####",
"    -@@@@@@@@@@@@@@@@@@@@@@@@@>  -@@@@@@@@@@@@@@@@@@@@@@@@@>    @@@@@@@@@@@@@@@@@@@@@@@",
"    -@@@@@@@@@@@@@@@@@@@@@@@@@>  -@@@@@@@@@@@@@@@@@@@@@@@@@>    @@###@#@@@###@###@###@@",
"    -@@@@@@@@@@@@@@@@@@@@@@@@@>  -@@@@@@@@@@@@@@@@@@@@@@@@@>    @#@@@@#@@@#@@@#@@@#@@#@",
"    s>>>>>>>>>>>>>>>>>>>>>>>>>>  s>>>>>>>>>>>>>>>>>>>>>>>>>>    @#@@@@#@@@#@@@#@@@#@@#@",
"                                                                @@##@@#@@@##@@##@@###@@",
"                                                                @@@@#@#@@@#@@@#@@@#@@@@",
"                                                                @@@@#@#@@@#@@@#@@@#@@@@",
"                                                                @###@@###@###@###@#@@@@"};
